# xmcd CD database file
# Copyright (C) 1993-1998 Ti Kan
# 
# Track frame offsets:
#     150
#     13895
#     27232
# 
# Disc length: 609 seconds
# 
# Revision: 1
# Processed by: cddbd v1.4b41PL1 Copyright (c) Steve Scherf et al.
# Submitted via: DiscPlay 4.0.4
# 
DISCID=1c025f03
DTITLE=The Blues Brothers - Soul Man
DYEAR=1900
DGENRE=
TTITLE0=Soul Man
TTITLE1=Do You Love Me
TTITLE2=B Movie Box Car Blues
EXTD=
EXTT0=
EXTT1=
EXTT2=
PLAYORDER=
